# xmcd
#
# Track frame offsets:
#	182
#	17987
#	45985
#	60080
#	92670
#	116432
#	147140
#	167755
#	191687
#	214715
#	229392
#	251742
#	268672
#	296582
#	311770
#
# Disc length: 4331
#
# Revision: 2
# Processed by: cddbd v1.5.1PL0 Copyright (c) Steve Scherf et al.
# Submitted via: CDWizzard Release:4.35
# Normalized: r1:DSETVAR1,TDELIM( - )
#
DISCID=d410e90f
DTITLE=Various Artist - Rattlesnake Guitar - The Music Of Peter Green [CD1]
DYEAR=1900
DGENRE=
TTITLE0=Black Magic Woman - Larry McCray
TTITLE1=Love That Burns - Dave Peverett/Rod Price
TTITLE2=Stop Messin' 'Round - Savoy Brown feat. Kim Simmonds
TTITLE3=Looking For Somebody - Snowy White
TTITLE4=Crying Won't Bring You Back - Luther Grosvenor/Mike Kellie/Jess Roden
TTITLE5=Leaving Town Blues - Rory Gallagher
TTITLE6=If You Be My Baby - Dave Peverett/Rod Price
TTITLE7=Ramblin' Pony - Harvey Mandel/Wilbur Bascomb
TTITLE8=The Green Manalishi - Arthur Brown
TTITLE9=Hellhound On My Trail - Ken Hensley
TTITLE10=I Loved Another Woman - Larry Mitchell/Jay Astron
TTITLE11=The Same Way - Mick Abrahams
TTITLE12=Drifting - Top Topham/Jim McCarty
TTITLE13=The Supernatural - Clas Yngstrom
TTITLE14=Man Of The World - Ian Anderson
EXTD=
EXTT0=Larry McCray
EXTT1=
EXTT2=
EXTT3=
EXTT4=
EXTT5=
EXTT6=
EXTT7=
EXTT8=
EXTT9=
EXTT10=
EXTT11=
EXTT12=
EXTT13=
EXTT14=
PLAYORDER=
